<svg width="66" height="66" viewBox="0 0 66 66" xmlns="http://www.w3.org/2000/svg">
    <g fill="none" fill-rule="evenodd">
        <path d="M64 29.607c0 16.352-13.88 29.607-31 29.607-17.12 0-31-13.255-31-29.607C2 13.255 15.88 0 33 0c17.12 0 31 13.255 31 29.607" fill="#F4E4F9"/>
        <path d="M33 65c-8.748 0-16.943-3.298-23.074-9.287a1.342 1.342 0 0 1-.034-1.88 1.3 1.3 0 0 1 1.854-.034c5.64 5.51 13.188 8.544 21.254 8.544 8.046 0 15.579-3.02 21.214-8.503a1.297 1.297 0 0 1 1.854.037c.502.53.484 1.372-.039 1.88C49.905 61.717 41.726 65 33 65" fill="#C63DE8"/>
        <path d="M45.456 16.022c-5.772 0-10.687 3.714-12.548 8.913-1.86-5.2-6.776-8.913-12.546-8.913-7.371 0-14.011 7.742-14.011 15.211-.09 2.598-.092 13.366 16.048 26.234a32.23 32.23 0 0 0 10.503 1.747c3.545 0 6.947-.576 10.12-1.622l.33-.231c15.445-11.836 16.045-23.377 16.114-26.128 0-7.47-6.64-15.21-14.01-15.21" fill="#C63DE8"/>
        <path fill="#FFF" d="m28.234 54.022-3.59-11.725H6.695v-4.834H28.16l1.752 5.73 9.277-13.38 5.359 9.3h13.97v4.835H41.808l-2.99-5.192z"/>
    </g>
</svg>
