<svg width="66" height="66" viewBox="0 0 66 66" xmlns="http://www.w3.org/2000/svg" xmlns:xlink="http://www.w3.org/1999/xlink">
    <defs>
        <path id="lh110puv0a" d="M0 0h37.735v36.887H0z"/>
    </defs>
    <g fill="none" fill-rule="evenodd">
        <path d="M64 29.607c0 16.352-13.88 29.607-31 29.607-17.12 0-31-13.255-31-29.607C2 13.255 15.88 0 33 0c17.12 0 31 13.255 31 29.607" fill="#F4E4F9"/>
        <path d="M33 65c-8.748 0-16.943-3.298-23.074-9.287a1.342 1.342 0 0 1-.034-1.88 1.3 1.3 0 0 1 1.854-.034c5.64 5.51 13.188 8.544 21.254 8.544 8.046 0 15.579-3.02 21.214-8.504a1.3 1.3 0 0 1 1.854.038c.502.53.485 1.372-.039 1.88C49.905 61.718 41.725 65 33 65" fill="#C63DE8"/>
        <g transform="translate(2 18.584)">
            <mask id="gs3vvzp6yb" fill="#fff">
                <use xlink:href="#lh110puv0a"/>
            </mask>
            <path d="M33.074 0H2.229a28.353 28.353 0 0 0-2.23 11.023c0 11.12 6.422 20.802 15.914 25.864a4.728 4.728 0 0 0 1.942-3.824c0-2.609-2.086-4.724-4.66-4.724h2.066c2.574 0 4.66-2.113 4.66-4.722 0-2.61-2.086-4.724-4.66-4.724h-1.192c2.574 0 4.66-2.115 4.66-4.723 0-2.609-2.086-4.724-4.66-4.724h19.005c2.574 0 4.66-2.114 4.66-4.722 0-2.61-2.086-4.724-4.66-4.724" fill="#E5A4F4" mask="url(#gs3vvzp6yb)"/>
        </g>
        <path d="M46.849 43.354c0 6.439-5.15 11.658-11.502 11.658-6.353 0-11.504-5.22-11.504-11.658 0-7.263 11.504-18.535 11.504-18.535S46.849 36.09 46.849 43.354" fill="#C63DE8"/>
        <path d="M40.576 40.837c-.061-1.713-2.607-4.878-4.197-6.47l1.675-1.72c.49.49 4.792 4.88 4.904 8.105l-2.382.085z" fill="#FFF"/>
    </g>
</svg>
