<svg width="66" height="66" viewBox="0 0 66 66" xmlns="http://www.w3.org/2000/svg">
    <g fill="none" fill-rule="evenodd">
        <path d="M64 29.607c0 16.352-13.88 29.607-31 29.607-17.12 0-31-13.255-31-29.607C2 13.255 15.88 0 33 0c17.12 0 31 13.255 31 29.607" fill="#E5F9F7"/>
        <path d="M33 65c-8.75 0-16.943-3.298-23.074-9.287a1.341 1.341 0 0 1-.033-1.88 1.3 1.3 0 0 1 1.854-.034c5.638 5.51 13.186 8.544 21.253 8.544 8.045 0 15.578-3.02 21.213-8.504a1.3 1.3 0 0 1 1.854.038c.502.53.486 1.372-.038 1.88C49.904 61.718 41.725 65 33 65" fill="#75D3C7"/>
        <path d="M32.868 11.9c-7.705.843-3.934 5.284-3.934 5.284-1.132.919.156 3.675.156 3.675 2.418 2.526 5.893 2.143 5.893 2.143l.715 1.29c1.237 6.816-2.755 11.802-2.755 11.802-4.759-4.593-12.01-1.148-12.01-1.148-1.587-5.283-12.238-5.513-12.238-5.513l-6.662-1.107c-.018.426-.033.852-.033 1.281 0 9.74 4.925 18.38 12.526 23.775 5.2-1.073 8.118-3.178 8.118-3.178.301 1.15 5.142 2.607 5.142 2.607 14.588 2.957 17.923-3.93 17.923-3.93 2.493-3.064 1.284-19.218 1.284-19.218C43.745 9.68 32.868 11.9 32.868 11.9" fill="#75D3C7"/>
        <path fill="#FFF" d="m14.8 27.865-1.754-8.144 3.496-.773 1.754 8.144zM24.16 28.26l-3.44-.991 2.246-7.995 3.44.992z"/>
    </g>
</svg>
